<svg xmlns="http://www.w3.org/2000/svg" version="1.1" xmlns:xlink="http://www.w3.org/1999/xlink" xmlns:svgjs="http://svgjs.dev/svgjs" viewBox="0 0 10.180936739654417 2.6623502064878544"><g transform="matrix(1,0,0,1,3.1147132758569196,1.0097077686648912)"><rect width="10.180936739654417" height="10.180936739654417" x="-3.114713275856919" y="-4.769001035248173" fill="#ffffff"></rect><g><path d=" M 0.31875070921639626 0.6519900870335377 Q 0.2336297811870177 0.6519900870335377 0.1743167941027167 0.6234655207258204 Q 0.11500380701841569 0.5949409544181031 0.0824043026667388 0.5401556762715349 Q 0.04980479831506191 0.4853703981249669 0.04618263116487559 0.4065882626084144 Q 0.04527708937732901 0.36946104931900464 0.04527708937732901 0.32690058530431537 Q 0.04527708937732901 0.2843401212896261 0.04618263116487559 0.24540182442512315 Q 0.04980479831506191 0.16752523069611724 0.08285707356051208 0.11273995254954916 Q 0.11590934880596226 0.05795467440298108 0.17567510678403656 0.028977337201490427 Q 0.23544086476211085 -1.1102230246251565e-16 0.31875070921639626 -1.1102230246251565e-16 Q 0.3794220089820171 -1.1102230246251565e-16 0.429226807297079 0.015394210388291807 Q 0.4790316056121409 0.030788420776583614 0.5152532771140041 0.05976575797807415 Q 0.5514749486158673 0.0887430951795648 0.5713968679418922 0.1276813920440677 Q 0.5913187872679169 0.16661968890857065 0.59312987084301 0.21461340364853942 Q 0.59312987084301 0.22276327973645865 0.5872438492239572 0.2281965304617381 Q 0.5813578276049045 0.2336297811870176 0.5732079515169852 0.2336297811870176 L 0.4699761877366751 0.2336297811870176 Q 0.45910968628611615 0.2336297811870176 0.4527708937732901 0.2281965304617381 Q 0.446432101260464 0.22276327973645865 0.4428099341102777 0.21008569471080651 Q 0.429226807297079 0.1566587292455583 0.3975328447329487 0.13673680991953352 Q 0.3658388821688184 0.1168148905935088 0.31875070921639626 0.1168148905935088 Q 0.26260711838850825 0.1168148905935088 0.23000761403683137 0.14760331137009247 Q 0.1974081096851545 0.1783917321466762 0.19469148432251474 0.24992953336285606 Q 0.191974858959875 0.3241839599416756 0.19469148432251474 0.4020605536706815 Q 0.1974081096851545 0.47359835488686136 0.23000761403683137 0.504386775663445 Q 0.26260711838850825 0.5351751964400289 0.31875070921639626 0.5351751964400289 Q 0.3658388821688184 0.5351751964400289 0.39798561562672197 0.5148005062202308 Q 0.4301323490846256 0.49442581600043267 0.4428099341102777 0.44190439232273104 Q 0.446432101260464 0.4283212655095323 0.4527708937732901 0.42334078567802613 Q 0.45910968628611615 0.41836030584651995 0.4699761877366751 0.41836030584651995 L 0.5732079515169852 0.41836030584651995 Q 0.5813578276049045 0.41836030584651995 0.5872438492239572 0.4237935565717994 Q 0.59312987084301 0.42922680729707896 0.59312987084301 0.43737668338499813 Q 0.5913187872679169 0.4853703981249669 0.5713968679418922 0.5243086949894699 Q 0.5514749486158673 0.5632469918539728 0.5152532771140041 0.5922243290554634 Q 0.4790316056121409 0.6212016662569539 0.429226807297079 0.6365958766452458 Q 0.3794220089820171 0.6519900870335377 0.31875070921639626 0.6519900870335377 M 0.7171829055098282 0.6429346691580718 Q 0.7072219458468159 0.6429346691580718 0.7008831533339898 0.6365958766452458 Q 0.6945443608211637 0.6302570841324198 0.6945443608211637 0.6202961244694073 L 0.6945443608211637 0.03169396256413026 Q 0.6945443608211637 0.021733002901117793 0.7008831533339898 0.015394210388291807 Q 0.7072219458468159 0.00905541787546571 0.7171829055098282 0.00905541787546571 L 0.8195091275025917 0.00905541787546571 Q 0.8294700871656041 0.00905541787546571 0.8358088796784302 0.015394210388291807 Q 0.8421476721912563 0.021733002901117793 0.8421476721912563 0.03169396256413026 L 0.8421476721912563 0.6202961244694073 Q 0.8421476721912563 0.6302570841324198 0.8358088796784302 0.6365958766452458 Q 0.8294700871656041 0.6429346691580718 0.8195091275025917 0.6429346691580718 L 0.7171829055098282 0.6429346691580718 M 0.9987829670057893 0.6429346691580718 Q 0.9888220073427769 0.6429346691580718 0.9824832148299508 0.6365958766452458 Q 0.9761444223171247 0.6302570841324198 0.9761444223171247 0.6202961244694073 L 0.9761444223171247 0.03169396256413026 Q 0.9761444223171247 0.021733002901117793 0.9824832148299508 0.015394210388291807 Q 0.9888220073427769 0.00905541787546571 0.9987829670057893 0.00905541787546571 L 1.2459958750060056 0.00905541787546571 Q 1.3193447597972787 0.00905541787546571 1.3732244961563 0.03169396256413026 Q 1.4271042325153216 0.054332507252794704 1.4574398823981323 0.10006236752389708 Q 1.4877755322809425 0.14579222779499934 1.4877755322809425 0.21370786186099283 Q 1.4877755322809425 0.2825290377145329 1.4574398823981323 0.32735335619808864 Q 1.4271042325153216 0.37217767468164437 1.3732244961563 0.3939106775827623 Q 1.3193447597972787 0.41564368048388023 1.2459958750060056 0.41564368048388023 L 1.1246532754747638 0.41564368048388023 L 1.1246532754747638 0.6202961244694073 Q 1.1246532754747638 0.6302570841324198 1.1183144829619378 0.6365958766452458 Q 1.1119756904491118 0.6429346691580718 1.1020147307860995 0.6429346691580718 L 0.9987829670057893 0.6429346691580718 M 1.1219366501121242 0.3033564988281043 L 1.2414681660682727 0.3033564988281043 Q 1.2876507972331483 0.3033564988281043 1.313458738178226 0.2807179541394398 Q 1.3392666791233034 0.2580794094507753 1.3392666791233034 0.21280232007344624 Q 1.3392666791233034 0.17295848142139675 1.3161753635408657 0.14760331137009247 Q 1.2930840479584278 0.12224814131878825 1.2414681660682727 0.12224814131878825 L 1.1219366501121242 0.12224814131878825 L 1.1219366501121242 0.3033564988281043 M 1.602772264754143 0.6429346691580718 Q 1.5928113050911306 0.6429346691580718 1.5864725125783044 0.6365958766452458 Q 1.5801337200654784 0.6302570841324198 1.5801337200654784 0.6202961244694073 L 1.5801337200654784 0.03169396256413026 Q 1.5801337200654784 0.021733002901117793 1.5864725125783044 0.015394210388291807 Q 1.5928113050911306 0.00905541787546571 1.602772264754143 0.00905541787546571 L 1.7014763195967202 0.00905541787546571 Q 1.7114372792597325 0.00905541787546571 1.7177760717725585 0.015394210388291807 Q 1.7241148642853847 0.021733002901117793 1.7241148642853847 0.03169396256413026 L 1.7241148642853847 0.2580794094507753 L 1.9695166887105078 0.2580794094507753 L 1.9695166887105078 0.03169396256413026 Q 1.9695166887105078 0.021733002901117793 1.975855481223334 0.015394210388291807 Q 1.98219427373616 0.00905541787546571 1.9921552333991723 0.00905541787546571 L 2.0908592882417496 0.00905541787546571 Q 2.100820247904762 0.00905541787546571 2.107159040417588 0.015394210388291807 Q 2.113497832930414 0.021733002901117793 2.113497832930414 0.03169396256413026 L 2.113497832930414 0.6202961244694073 Q 2.113497832930414 0.6302570841324198 2.107159040417588 0.6365958766452458 Q 2.100820247904762 0.6429346691580718 2.0908592882417496 0.6429346691580718 L 1.9921552333991723 0.6429346691580718 Q 1.98219427373616 0.6429346691580718 1.975855481223334 0.6365958766452458 Q 1.9695166887105078 0.6302570841324198 1.9695166887105078 0.6202961244694073 L 1.9695166887105078 0.38666634328238964 L 1.7241148642853847 0.38666634328238964 L 1.7241148642853847 0.6202961244694073 Q 1.7241148642853847 0.6302570841324198 1.7177760717725585 0.6365958766452458 Q 1.7114372792597325 0.6429346691580718 1.7014763195967202 0.6429346691580718 L 1.602772264754143 0.6429346691580718 M 2.2701561200168965 0.6429346691580718 Q 2.260195160353884 0.6429346691580718 2.253856367841058 0.6365958766452458 Q 2.247517575328232 0.6302570841324198 2.247517575328232 0.6202961244694073 L 2.247517575328232 0.03169396256413026 Q 2.247517575328232 0.021733002901117793 2.253856367841058 0.015394210388291807 Q 2.260195160353884 0.00905541787546571 2.2701561200168965 0.00905541787546571 L 2.6803665497754974 0.00905541787546571 Q 2.69032750943851 0.00905541787546571 2.6966663019513355 0.015394210388291807 Q 2.703005094464162 0.021733002901117793 2.703005094464162 0.03169396256413026 L 2.703005094464162 0.10413730556785661 Q 2.703005094464162 0.11319272344332243 2.6966663019513355 0.11953151595614853 Q 2.69032750943851 0.1258703084689745 2.6803665497754974 0.1258703084689745 L 2.3869710106104054 0.1258703084689745 L 2.3869710106104054 0.26804036911378765 L 2.6604446304494727 0.26804036911378765 Q 2.670405590112485 0.26804036911378765 2.6767443826253112 0.2743791616266137 Q 2.6830831751381368 0.2807179541394398 2.6830831751381368 0.29067891380245214 L 2.6830831751381368 0.3576890060808991 Q 2.6830831751381368 0.36674442395636486 2.6767443826253112 0.37308321646919096 Q 2.670405590112485 0.379422008982017 2.6604446304494727 0.379422008982017 L 2.3869710106104054 0.379422008982017 L 2.3869710106104054 0.526119778564563 L 2.6876108840758697 0.526119778564563 Q 2.6975718437388823 0.526119778564563 2.7039106362517082 0.532458571077389 Q 2.7102494287645342 0.5387973635902151 2.7102494287645342 0.5487583232532275 L 2.7102494287645342 0.6202961244694073 Q 2.7102494287645342 0.6302570841324198 2.7039106362517082 0.6365958766452458 Q 2.6975718437388823 0.6429346691580718 2.6876108840758697 0.6429346691580718 L 2.2701561200168965 0.6429346691580718 M 2.8406518677620016 0.6429346691580718 Q 2.830690908098989 0.6429346691580718 2.824352115586163 0.6365958766452458 Q 2.818013323073337 0.6302570841324198 2.818013323073337 0.6202961244694073 L 2.818013323073337 0.03169396256413026 Q 2.818013323073337 0.021733002901117793 2.824352115586163 0.015394210388291807 Q 2.830690908098989 0.00905541787546571 2.8406518677620016 0.00905541787546571 L 3.0806204414618454 0.00905541787546571 Q 3.1938131649051678 0.00905541787546571 3.2590121736085216 0.06112407065939407 Q 3.3242111823118754 0.11319272344332243 3.3242111823118754 0.2109912364983531 Q 3.3242111823118754 0.27709578698925347 3.292517219747745 0.32146733457903587 Q 3.260823257183615 0.3658388821688183 3.2073962917183665 0.38757188506993623 L 3.3350776837624343 0.6139573319565813 Q 3.337794309125074 0.6193905826818608 3.337794309125074 0.6239182916195937 Q 3.337794309125074 0.6311626259199663 3.332361058399795 0.6370486475390191 Q 3.3269278076745152 0.6429346691580718 3.318777931586596 0.6429346691580718 L 3.2182627931689254 0.6429346691580718 Q 3.2019630409930873 0.6429346691580718 3.1938131649051678 0.6343320221763793 Q 3.1856632888172487 0.6257293751946869 3.182041121667062 0.6184850408943142 L 3.0715650235863796 0.4111159715461473 L 2.9619944672932434 0.4111159715461473 L 2.9619944672932434 0.6202961244694073 Q 2.9619944672932434 0.6302570841324198 2.9556556747804175 0.6365958766452458 Q 2.949316882267591 0.6429346691580718 2.939355922604579 0.6429346691580718 L 2.8406518677620016 0.6429346691580718 M 2.9619944672932434 0.29611216452773165 L 3.0779038160992056 0.29611216452773165 Q 3.1277086144142676 0.29611216452773165 3.151705471784252 0.27347361983906715 Q 3.175702329154236 0.2508350751504026 3.175702329154236 0.21008569471080651 Q 3.175702329154236 0.16933631427121043 3.1521582426780252 0.14579222779499934 Q 3.128614156201814 0.12224814131878825 3.0779038160992056 0.12224814131878825 L 2.9619944672932434 0.12224814131878825 L 2.9619944672932434 0.29611216452773165 M 3.8639277946209916 0.6519900870335377 Q 3.77699578301652 0.6519900870335377 3.7185883377197655 0.6266349169822334 Q 3.660180892423011 0.6012797469309291 3.6302980134339737 0.560530366491333 Q 3.600415134444937 0.519780986051737 3.598604050869844 0.47359835488686136 Q 3.598604050869844 0.46635402058648867 3.604037301595123 0.46046799896743595 Q 3.6094705523204027 0.4545819773483832 3.6176204284083218 0.4545819773483832 L 3.714513399675806 0.4545819773483832 Q 3.7262854429139116 0.4545819773483832 3.7326242354267376 0.45956245717988936 Q 3.7389630279395636 0.46454293701139554 3.7443962786648433 0.47178727131176823 Q 3.7507350711776692 0.48718148170006004 3.7647709688846414 0.5016701503008053 Q 3.778806866591613 0.5161588189015507 3.8032564948553707 0.5256670076707897 Q 3.8277061231191283 0.5351751964400289 3.8639277946209916 0.5351751964400289 Q 3.9227880108115194 0.5351751964400289 3.9522181189067833 0.5161588189015507 Q 3.9816482270020472 0.4971424413630724 3.9816482270020472 0.46454293701139554 Q 3.9816482270020472 0.4409988505351845 3.965801245719982 0.4265101819344392 Q 3.949954264437917 0.4120215133336939 3.91599644740492 0.40024947009558837 Q 3.882038630371923 0.3884774268574828 3.825895039544035 0.3748943000442841 Q 3.757979405478042 0.3604056314435388 3.7104384616318464 0.33731431586110106 Q 3.662897517785651 0.31422300027866323 3.6389006604156666 0.27754855788302674 Q 3.614903803045682 0.24087411548739024 3.614903803045682 0.18654160823459542 Q 3.614903803045682 0.1322091009818006 3.6447866820347192 0.09010140786088461 Q 3.6746695610237565 0.04799371473996861 3.729002068276551 0.023996857369984248 Q 3.783334575529346 -1.1102230246251565e-16 3.8584945438957123 -1.1102230246251565e-16 Q 3.9191658436613332 -1.1102230246251565e-16 3.965801245719982 0.016299752175838345 Q 4.012436647778631 0.0325995043516768 4.043677839448987 0.058860216190527614 Q 4.074919031119345 0.08512092802937843 4.091218783295183 0.11500380701841562 Q 4.107518535471022 0.14488668600745275 4.108424077258569 0.17295848142139675 Q 4.108424077258569 0.18020281572176938 4.102990826533289 0.18608883734082216 Q 4.097557575808009 0.19197485895987493 4.08940769972009 0.19197485895987493 L 3.987987019514873 0.19197485895987493 Q 3.9789316016394074 0.19197485895987493 3.9716872673390347 0.1883526918096886 Q 3.964442933038662 0.1847305246595023 3.959915224100929 0.17567510678403647 Q 3.9544819733756498 0.15213102030782538 3.9277684906430257 0.13447295545066706 Q 3.9010550079104016 0.1168148905935088 3.8584945438957123 0.1168148905935088 Q 3.8141229963059295 0.1168148905935088 3.7883150553608522 0.13311464276934715 Q 3.762507114415775 0.14941439494518566 3.762507114415775 0.1829194410844091 Q 3.762507114415775 0.204652443985527 3.7756374703352003 0.2195938834800456 Q 3.7887678262546256 0.2345353229745642 3.8200090179249826 0.24585459531889642 Q 3.8512502095953396 0.2571738676632287 3.9028660914854947 0.27075699447642737 Q 3.9825537687895936 0.2870567466522658 4.032358567104655 0.3096952913409303 Q 4.082163365419717 0.3323338360295948 4.1057074518959285 0.3681027366376848 Q 4.12925153837214 0.4038716372457747 4.12925153837214 0.4582041444985695 Q 4.12925153837214 0.5188754442641903 4.095293721339143 0.5623414500664262 Q 4.061335904306146 0.605807455868662 4.002022917221845 0.6288987714510998 Q 3.942709930137544 0.6519900870335377 3.8639277946209916 0.6519900870335377 M 4.248762715010795 0.6429346691580718 Q 4.238801755347782 0.6429346691580718 4.232462962834957 0.6365958766452458 Q 4.22612417032213 0.6302570841324198 4.22612417032213 0.6202961244694073 L 4.22612417032213 0.03169396256413026 Q 4.22612417032213 0.021733002901117793 4.232462962834957 0.015394210388291807 Q 4.238801755347782 0.00905541787546571 4.248762715010795 0.00905541787546571 L 4.347466769853372 0.00905541787546571 Q 4.357427729516385 0.00905541787546571 4.36376652202921 0.015394210388291807 Q 4.3701053145420365 0.021733002901117793 4.3701053145420365 0.03169396256413026 L 4.3701053145420365 0.2580794094507753 L 4.61550713896716 0.2580794094507753 L 4.61550713896716 0.03169396256413026 Q 4.61550713896716 0.021733002901117793 4.621845931479986 0.015394210388291807 Q 4.6281847239928116 0.00905541787546571 4.638145683655824 0.00905541787546571 L 4.736849738498401 0.00905541787546571 Q 4.746810698161414 0.00905541787546571 4.7531494906742395 0.015394210388291807 Q 4.759488283187066 0.021733002901117793 4.759488283187066 0.03169396256413026 L 4.759488283187066 0.6202961244694073 Q 4.759488283187066 0.6302570841324198 4.7531494906742395 0.6365958766452458 Q 4.746810698161414 0.6429346691580718 4.736849738498401 0.6429346691580718 L 4.638145683655824 0.6429346691580718 Q 4.6281847239928116 0.6429346691580718 4.621845931479986 0.6365958766452458 Q 4.61550713896716 0.6302570841324198 4.61550713896716 0.6202961244694073 L 4.61550713896716 0.38666634328238964 L 4.3701053145420365 0.38666634328238964 L 4.3701053145420365 0.6202961244694073 Q 4.3701053145420365 0.6302570841324198 4.36376652202921 0.6365958766452458 Q 4.357427729516385 0.6429346691580718 4.347466769853372 0.6429346691580718 L 4.248762715010795 0.6429346691580718 M 4.856380812295474 0.6429346691580718 Q 4.848230936207555 0.6429346691580718 4.842797685482275 0.6370486475390191 Q 4.837364434756997 0.6311626259199663 4.837364434756997 0.6239182916195937 Q 4.837364434756997 0.6193905826818608 4.8382699765445425 0.6157684155316745 L 5.053788921980629 0.03350504613922334 Q 5.056505547343269 0.02354408647621098 5.064655423431188 0.016299752175838345 Q 5.072805299519107 0.00905541787546571 5.087293968119853 0.00905541787546571 L 5.203203316925815 0.00905541787546571 Q 5.21769198552656 0.00905541787546571 5.225841861614479 0.016299752175838345 Q 5.233991737702398 0.02354408647621098 5.236708363065038 0.03350504613922334 L 5.452227308501124 0.6157684155316745 Q 5.453132850288671 0.6193905826818608 5.453132850288671 0.6239182916195937 Q 5.453132850288671 0.6311626259199663 5.447699599563391 0.6370486475390191 Q 5.442266348838112 0.6429346691580718 5.434116472750192 0.6429346691580718 L 5.339940126845348 0.6429346691580718 Q 5.326357000032149 0.6429346691580718 5.320018207519324 0.6365958766452458 Q 5.313679415006497 0.6302570841324198 5.311868331431405 0.6248238334071402 L 5.272930034566901 0.5234031532019232 L 5.017567250478765 0.5234031532019232 L 4.978628953614263 0.6248238334071402 Q 4.976817870039169 0.6302570841324198 4.970479077526344 0.6365958766452458 Q 4.964140285013517 0.6429346691580718 4.9505571582003185 0.6429346691580718 L 4.856380812295474 0.6429346691580718 M 5.051072296617989 0.4065882626084144 L 5.238519446640131 0.4065882626084144 L 5.145248642522834 0.14579222779499934 L 5.051072296617989 0.4065882626084144 M 5.553629418025151 0.6429346691580718 Q 5.543668458362139 0.6429346691580718 5.537329665849313 0.6365958766452458 Q 5.530990873336487 0.6302570841324198 5.530990873336487 0.6202961244694073 L 5.530990873336487 0.03169396256413026 Q 5.530990873336487 0.021733002901117793 5.537329665849313 0.015394210388291807 Q 5.543668458362139 0.00905541787546571 5.553629418025151 0.00905541787546571 L 5.793597991724995 0.00905541787546571 Q 5.906790715168317 0.00905541787546571 5.971989723871672 0.06112407065939407 Q 6.037188732575025 0.11319272344332243 6.037188732575025 0.2109912364983531 Q 6.037188732575025 0.27709578698925347 6.005494770010895 0.32146733457903587 Q 5.973800807446764 0.3658388821688183 5.920373841981516 0.38757188506993623 L 6.048055234025584 0.6139573319565813 Q 6.050771859388224 0.6193905826818608 6.050771859388224 0.6239182916195937 Q 6.050771859388224 0.6311626259199663 6.045338608662944 0.6370486475390191 Q 6.0399053579376645 0.6429346691580718 6.031755481849745 0.6429346691580718 L 5.9312403434320755 0.6429346691580718 Q 5.9149405912562365 0.6429346691580718 5.906790715168317 0.6343320221763793 Q 5.898640839080398 0.6257293751946869 5.895018671930212 0.6184850408943142 L 5.784542573849529 0.4111159715461473 L 5.674972017556393 0.4111159715461473 L 5.674972017556393 0.6202961244694073 Q 5.674972017556393 0.6302570841324198 5.668633225043567 0.6365958766452458 Q 5.662294432530741 0.6429346691580718 5.652333472867729 0.6429346691580718 L 5.553629418025151 0.6429346691580718 M 5.674972017556393 0.29611216452773165 L 5.790881366362355 0.29611216452773165 Q 5.840686164677417 0.29611216452773165 5.8646830220474016 0.27347361983906715 Q 5.888679879417386 0.2508350751504026 5.888679879417386 0.21008569471080651 Q 5.888679879417386 0.16933631427121043 5.8651357929411745 0.14579222779499934 Q 5.841591706464964 0.12224814131878825 5.790881366362355 0.12224814131878825 L 5.674972017556393 0.12224814131878825 L 5.674972017556393 0.29611216452773165 M 6.171215107358982 0.6429346691580718 Q 6.16125414769597 0.6429346691580718 6.154915355183144 0.6365958766452458 Q 6.148576562670318 0.6302570841324198 6.148576562670318 0.6202961244694073 L 6.148576562670318 0.03169396256413026 Q 6.148576562670318 0.021733002901117793 6.154915355183144 0.015394210388291807 Q 6.16125414769597 0.00905541787546571 6.171215107358982 0.00905541787546571 L 6.581425537117583 0.00905541787546571 Q 6.591386496780595 0.00905541787546571 6.597725289293422 0.015394210388291807 Q 6.604064081806247 0.021733002901117793 6.604064081806247 0.03169396256413026 L 6.604064081806247 0.10413730556785661 Q 6.604064081806247 0.11319272344332243 6.597725289293422 0.11953151595614853 Q 6.591386496780595 0.1258703084689745 6.581425537117583 0.1258703084689745 L 6.288029997952491 0.1258703084689745 L 6.288029997952491 0.26804036911378765 L 6.561503617791558 0.26804036911378765 Q 6.571464577454571 0.26804036911378765 6.577803369967397 0.2743791616266137 Q 6.584142162480223 0.2807179541394398 6.584142162480223 0.29067891380245214 L 6.584142162480223 0.3576890060808991 Q 6.584142162480223 0.36674442395636486 6.577803369967397 0.37308321646919096 Q 6.571464577454571 0.379422008982017 6.561503617791558 0.379422008982017 L 6.288029997952491 0.379422008982017 L 6.288029997952491 0.526119778564563 L 6.588669871417956 0.526119778564563 Q 6.5986308310809685 0.526119778564563 6.604969623593794 0.532458571077389 Q 6.6113084161066205 0.5387973635902151 6.6113084161066205 0.5487583232532275 L 6.6113084161066205 0.6202961244694073 Q 6.6113084161066205 0.6302570841324198 6.604969623593794 0.6365958766452458 Q 6.5986308310809685 0.6429346691580718 6.588669871417956 0.6429346691580718 L 6.171215107358982 0.6429346691580718" fill="#000000" fill-rule="nonzero"></path></g><g></g><g clip-path="url(#SvgjsClipPath1002)"><g clip-path="url(#SvgjsClipPath1000d61d14f5-6de6-4112-8b41-40350698243c)"><path d=" M -1.1319779873291016 0.5532079026583201 C -1.2180930449307814 0.46688377154210303 -1.3042894088992207 0.3806757923784073 -1.3905670792344265 0.2945839651672384 C -1.4325908556577907 0.25276926225841323 -1.4396645095665421 0.2529783357729576 -1.4831169550059615 0.29625655328359113 C -1.5682098754254186 0.3810010178454766 -1.6531285679160863 0.46591971033614965 -1.7378730324779719 0.5510126307556049 C -1.7458057393327993 0.558494238265911 -1.7532107231926721 0.5665163041141092 -1.7600348250196476 0.5750212393424208 C -1.7674548669660624 0.5835433481665058 -1.7691634582321991 0.5956345453071072 -1.7643952884080818 0.6058789544078973 C -1.7596271185839647 0.6161233635086854 -1.7492756764941595 0.6226013245358228 -1.7379775692352508 0.6224112359724254 C -1.7108328579302596 0.6243277431890792 -1.6834442275249761 0.6230036109302997 -1.6561601338769718 0.623561140302419 C -1.6384585763122366 0.6239095961599923 -1.6207918643332564 0.6250595004899842 -1.6024282406391401 0.625860948962403 C -1.597075904578805 0.6462025832811509 -1.5953188213196428 0.6673229599063804 -1.5972362483612945 0.6882693930538251 C -1.5970504052372558 0.8374781912668137 -1.596992329260995 0.9866869894798025 -1.5970620204325052 1.1358957876927929 C -1.5975950378205246 1.152251568149632 -1.5969545597040244 1.1686245178187493 -1.5951455132158585 1.1848886812676311 C -1.592927730746177 1.2135394610906043 -1.5695404553276333 1.2359516416392302 -1.540821245020128 1.2369479863891206 C -1.471803754830063 1.2388528784105215 -1.4026933430779824 1.2389574151677936 -1.3334900097638789 1.2372615966609353 C -1.3027537746848206 1.2369773123065755 -1.277607625818165 1.212703549614841 -1.2762387123645422 1.1819964976497712 C -1.2749012789600658 1.1656786594170359 -1.2745057060287133 1.1492972862597566 -1.2750539624487864 1.1329339129034175 C -1.2750539624487864 0.9818782986452885 -1.2750539624487864 0.8308575299729146 -1.274775197762732 0.6799412980578148 C -1.2786745933299601 0.6605029067084156 -1.2749304482690167 0.6403094843463697 -1.2643215220355306 0.6235611403024155 C -1.2326120389963264 0.6235611403024155 -1.1982891370253397 0.6235611403024155 -1.163966235054339 0.6235611403024155 C -1.1512715416746822 0.624012632500472 -1.1385629969212796 0.6232307477452128 -1.1260193921645816 0.621226486056673 C -1.1170371143591233 0.6189764037498877 -1.1097583960639053 0.6124129580198534 -1.1065944791117792 0.6037104403104849 C -1.1034305621596603 0.5950079226011165 -1.1047944568236452 0.5853023390937802 -1.1102343418165073 0.5778088862030104 C -1.1167663605883202 0.5690026443109206 -1.124040842878516 0.5607722204377248 -1.1319779873291016 0.5532079026583201 Z" fill="#007dfc" transform="matrix(1,0,0,1,0,0)" fill-rule="evenodd"></path></g><g clip-path="url(#SvgjsClipPath1000d61d14f5-6de6-4112-8b41-40350698243c)"><path d=" M -0.2748462688697124 0.2836772968251863 L -0.2748462688697124 0.28406059826851804 C -0.32081461102401443 0.19049746200675355 -0.3969052001149733 0.11510641542839917 -0.490888900565305 0.07000416496109607 C -0.506883024427931 0.062094216994176166 -0.5239573614490403 0.054497879299070906 -0.541275617570435 0.04616978430306229 C -0.534561868014491 -0.08859565321588647 -0.573464160890897 -0.2216908439277936 -0.6517012788354943 -0.33162605647816906 C -0.7288236112055337 -0.44396862882593235 -0.8417638019843778 -0.5268372961083005 -0.9720715942886067 -0.5666943779972784 C -1.091078104202282 -0.6049115788643046 -1.2190214790402552 -0.6051916490671495 -1.3381941638411259 -0.5674958264696971 C -1.4870344849244888 -0.5211046450218075 -1.6128604639977473 -0.42020739355326914 -1.6904830358479657 -0.2850026627348283 C -1.712331218117832 -0.2850026627348283 -1.7304160771259007 -0.28562988327845945 -1.7484312449624524 -0.2850026627348283 C -1.784800043614508 -0.28565198624011057 -1.8211659797490267 -0.2835552954956469 -1.8572191636969055 -0.2787304572985025 C -2.005631828895209 -0.25260825333979153 -2.1314063542088593 -0.15453702288970278 -2.1929215368832624 -0.01697041708926139 C -2.199089205562313 -0.004216932702070797 -2.20532656541288 0.008501706099364847 -2.2098216459755755 0.017875168668093133 C -2.252368106185308 0.022683859502607095 -2.2906982505183913 0.024565521133505852 -2.3280527184502775 0.0318134029710343 C -2.473830198113663 0.06015561199573738 -2.596917981273377 0.15721287317377663 -2.6584774625714616 0.29236014340784433 C -2.7200369438695393 0.42750741364191214 -2.7124752743642957 0.5840754035531581 -2.638178431690733 0.712661303083973 C -2.561172334918352 0.8563707712556863 -2.4109454043859886 0.9456484899720605 -2.24790787120836 0.9445935218849211 C -2.1131251454989233 0.9480780804606572 -1.9781681918606906 0.9454646615288551 -1.8432809293939678 0.9452904336000694 C -1.8325982290189713 0.9445926838562348 -1.8219715596413872 0.943207608658063 -1.8114669095975058 0.9411438088949453 C -1.803372081357131 0.9183309377781457 -1.8011902075050834 0.8938388043730718 -1.8051250129896732 0.8699542771926692 C -1.8005425251889204 0.8439979266953819 -1.8036430226489042 0.8172682474212449 -1.8140454829435404 0.7930500694261899 C -1.833872621239481 0.7927016135686167 -1.8536997595354143 0.7919698562677115 -1.8734920522455925 0.7919350106819532 C -1.991967043820594 0.7919350106819532 -2.1104420353956024 0.7919350106819532 -2.228917026970604 0.7919350106819532 C -2.2672557746051845 0.7927591955901199 -2.3054426417501217 0.7868625206140627 -2.34174703365293 0.7745122178032757 C -2.484626084483952 0.7225896140585026 -2.5688855027588677 0.5748369705650602 -2.5408198650846856 0.42542913968610385 C -2.5116951950680875 0.27394962783949517 -2.374818962715964 0.16751020986862397 -2.2208328510749 0.17659681179283915 C -2.1935836030126508 0.17816486315191982 -2.166369200536156 0.1816494217276542 -2.139119952473907 0.18307809074370573 C -2.126665162643582 0.18309366601267796 -2.114222451162163 0.18230217454332664 -2.101870021299293 0.18070859091220648 C -2.0883499340254437 0.1423784465791158 -2.0766766627967312 0.10589511829116705 -2.0627384284937866 0.07031777523290905 C -2.02780374043107 -0.027981467894021228 -1.9451176549494429 -0.10165394227754226 -1.843455157322757 -0.12506142410857674 C -1.7988286042037824 -0.13484540676376083 -1.7526401907940397 -0.13510662658253292 -1.7079058287266464 -0.12582802699523687 C -1.6764018025427818 -0.11733828638503008 -1.6439718162437305 -0.11276227604835204 -1.6113487105930144 -0.11220340296411396 C -1.5904413591386115 -0.14865188566630416 -1.5718338163441818 -0.18419438313880354 -1.550299244346139 -0.21778552780889404 C -1.471143924273765 -0.3529570659165277 -1.3274409103153242 -0.4372918650173866 -1.1708308154485532 -0.4404836663841445 C -1.0434915405497383 -0.44504189320560583 -0.9199948697067026 -0.3964235924147016 -0.829937708805238 -0.3062805054147608 C -0.7398805479037736 -0.2161374184148218 -0.6913800446945562 -0.09259443775804643 -0.6960597095046008 0.034740432174649394 C -0.6981155990642889 0.06380165069628219 -0.698185290235799 0.09307194273245922 -0.6981155990642889 0.12216800683985063 C -0.697417418587488 0.13436113863126675 -0.6959627196251685 0.1464991467728084 -0.6937599008446207 0.15851195278477215 C -0.653478403709121 0.17290317970255875 -0.6147301123469346 0.1839840759733966 -0.5781770928874703 0.20011758217905307 C -0.46933887339398517 0.24149204243686462 -0.394839286420813 0.34279730071115044 -0.3877808123092965 0.4590202843561926 C -0.37547596298833197 0.5728383924109088 -0.42997476717171024 0.6835327256899681 -0.5276858391250756 0.7431860362074141 C -0.5782141950555597 0.7766518062810446 -0.6378477455826395 0.7936899635744976 -0.6984292093361124 0.7919698562677082 C -0.8022690548930262 0.7914123268955924 -0.9062134372072121 0.7916562459958933 -1.010088128349881 0.79196985626771 C -1.028026849875031 0.7887375853384637 -1.0465253449867078 0.7910848631534253 -1.0630882642868145 0.7986950543188793 C -1.0708079156260741 0.8451997913815907 -1.0705132843948921 0.892682560599003 -1.0622171246428822 0.939087919335259 C -1.0456130524854732 0.9461209623182254 -1.0273414741449958 0.9482492202850852 -1.0095654445635203 0.9452207424285524 C -0.9093030791443584 0.9455691982861256 -0.809052328920453 0.9455691982861256 -0.708813193891797 0.9452207424285524 C -0.690588952540701 0.9452207424285524 -0.6723298656038428 0.9445238307134058 -0.654175315424264 0.9430254705258405 C -0.5343751793381322 0.9346140120282522 -0.4230876844882454 0.8780463257270592 -0.345687344714408 0.7862203346177465 C -0.29513977436492445 0.7341578938503257 -0.2594535043496391 0.6695111208253421 -0.2423353373581003 0.5989950023434818 L -0.24212626384354863 0.5986813920716672 C -0.20149631085047748 0.387726215896646 -0.2748462688697124 0.2836772968251863 -0.2748462688697124 0.2836772968251863 Z" fill="#007dfc" transform="matrix(1,0,0,1,0,0)" fill-rule="evenodd"></path></g></g></g><defs><clipPath id="SvgjsClipPath1002"><path d=" M -2.7005520301963983 -0.5955465230043704 h 2.4705520301963984 v 1.8340277151668127 h -2.4705520301963984 Z"></path></clipPath><clipPath id="SvgjsClipPath1000d61d14f5-6de6-4112-8b41-40350698243c"><path d=" M -2.7005520301963983 -0.5955465230043704 L -0.22999999999999998 -0.5955465230043704 L -0.22999999999999998 1.2384811921624423 L -2.7005520301963983 1.2384811921624423 Z"></path></clipPath></defs></svg>